<svg width="46" height="40" viewBox="0 0 46 40" fill="none" xmlns="http://www.w3.org/2000/svg">
<path d="M22.8028 39.9964C16.2108 39.9964 9.61878 39.9964 3.02679 39.9964C2.70478 39.9964 2.3786 39.9964 2.0552 39.9628C0.404892 39.8074 -0.258564 38.6858 0.445144 37.1694C1.05586 35.8602 1.72209 34.5847 2.36889 33.2895C5.42245 27.1913 8.47601 21.0939 11.5296 14.9975C11.624 14.8113 11.7225 14.6251 11.8322 14.4473C12.6011 13.2039 13.8503 13.0289 14.8344 14.1014C15.5283 14.8519 16.1155 15.6948 16.7345 16.5083C19.8806 20.6557 23.0267 24.8049 26.1728 28.9559C27.5469 30.7622 29.2777 30.8602 30.8919 29.236C31.6928 28.4295 32.4756 27.602 33.2862 26.8025C34.7477 25.3603 36.4064 25.4471 37.6 27.1287C39.9957 30.5031 42.3317 33.9224 44.6788 37.3304C44.8622 37.5978 45.0027 37.8927 45.0952 38.2042C45.3228 38.9869 45.0008 39.6169 44.2138 39.8256C43.7203 39.9447 43.2137 39.9998 42.7064 39.9894C36.0756 40.0006 29.441 40.0029 22.8028 39.9964Z" fill="#879E36"/>
<path d="M37.5862 6.58104C37.5845 7.88267 37.1997 9.15449 36.4806 10.2353C35.7616 11.316 34.7406 12.1571 33.5471 12.6517C32.3536 13.1464 31.0414 13.2725 29.7768 13.014C28.5123 12.7554 27.3523 12.1239 26.4439 11.1995C25.5355 10.2751 24.9197 9.09938 24.6745 7.82147C24.4293 6.54356 24.5658 5.22098 25.0666 4.0214C25.5674 2.82181 26.41 1.79926 27.4876 1.08336C28.5652 0.36747 29.8293 -0.00952153 31.1195 0.000182744C32.8377 0.0222081 34.4784 0.724421 35.688 1.95544C36.8977 3.18647 37.5794 4.8477 37.5862 6.58104Z" fill="#879E36"/>
</svg>
