<svg width="46" height="41" viewBox="0 0 46 41" fill="none" xmlns="http://www.w3.org/2000/svg">
<path d="M23.1361 40.4964C16.5441 40.4964 9.95216 40.4964 3.36017 40.4964C3.03815 40.4964 2.71198 40.4964 2.38858 40.4628C0.738266 40.3074 0.0748104 39.1858 0.778518 37.6694C1.38923 36.3602 2.05546 35.0847 2.70226 33.7895C5.75582 27.6913 8.80938 21.5939 11.8629 15.4975C11.9573 15.3113 12.0559 15.1251 12.1655 14.9473C12.9345 13.7039 14.1837 13.5289 15.1677 14.6014C15.8617 15.3519 16.4488 16.1948 17.0679 17.0083C20.214 21.1557 23.3601 25.3049 26.5062 29.4559C27.8803 31.2622 29.6111 31.3602 31.2253 29.736C32.0262 28.9295 32.809 28.102 33.6196 27.3025C35.0811 25.8603 36.7398 25.9471 37.9334 27.6287C40.3291 31.0031 42.6651 34.4224 45.0121 37.8304C45.1956 38.0978 45.3361 38.3927 45.4285 38.7042C45.6562 39.4869 45.3341 40.1169 44.5472 40.3256C44.0537 40.4447 43.5471 40.4998 43.0398 40.4894C36.409 40.5006 29.7744 40.5029 23.1361 40.4964Z" fill="#879E36"/>
<path d="M37.9195 7.08104C37.9178 8.38267 37.5331 9.65449 36.814 10.7353C36.0949 11.816 35.0739 12.6571 33.8805 13.1517C32.687 13.6464 31.3748 13.7725 30.1102 13.514C28.8456 13.2554 27.6856 12.6239 26.7773 11.6995C25.8689 10.7751 25.2531 9.59938 25.0079 8.32147C24.7627 7.04356 24.8991 5.72098 25.4 4.5214C25.9008 3.32181 26.7434 2.29926 27.821 1.58336C28.8986 0.86747 30.1627 0.490478 31.4529 0.500183C33.171 0.522208 34.8117 1.22442 36.0214 2.45544C37.2311 3.68647 37.9127 5.3477 37.9195 7.08104Z" fill="#879E36"/>
</svg>
